<?xml version="1.0"?>
<svg xmlns="http://www.w3.org/2000/svg" xmlns:xlink="http://www.w3.org/1999/xlink" xmlns:svgjs="http://svgjs.com/svgjs" version="1.1" width="512" height="512" x="0" y="0" viewBox="0 0 512.02 512.02" style="enable-background:new 0 0 512 512" xml:space="preserve" class=""><g>
<path xmlns="http://www.w3.org/2000/svg" style="" d="M511.189,315.875c-0.538-1.301-1.328-2.483-2.325-3.477l-128-128  c-4.237-4.093-10.99-3.975-15.083,0.262c-3.993,4.134-3.993,10.687,0,14.821l109.803,109.803H266.667  C131.236,309.13,21.486,199.38,21.333,63.95c0-5.891-4.776-10.667-10.667-10.667S0,58.059,0,63.95  c0.165,147.208,119.459,266.502,266.667,266.667h208.917L365.803,440.398c-4.237,4.093-4.354,10.846-0.261,15.083  c4.093,4.237,10.846,4.354,15.083,0.261c0.089-0.086,0.176-0.173,0.261-0.261l128-128c3.056-3.048,3.974-7.638,2.325-11.627  L511.189,315.875z" fill="#14233c" data-original="#2196f3"/>
<path xmlns="http://www.w3.org/2000/svg" d="M373.333,458.617c-5.891,0.011-10.675-4.757-10.686-10.648c-0.005-2.84,1.123-5.565,3.134-7.571L486.251,319.95  L365.781,199.502c-4.093-4.237-3.975-10.99,0.262-15.083c4.134-3.993,10.687-3.993,14.821,0l128,128  c4.164,4.165,4.164,10.917,0,15.083l-128,128C378.865,457.496,376.157,458.616,373.333,458.617z" fill="#49dee1" data-original="#49dee1" style=""/>
<path xmlns="http://www.w3.org/2000/svg" d="M501.333,330.617H266.667C119.459,330.452,0.165,211.158,0,63.95c0-5.891,4.776-10.667,10.667-10.667  s10.667,4.776,10.667,10.667c0.153,135.43,109.903,245.181,245.333,245.333h234.667c5.891,0,10.667,4.776,10.667,10.667  C512,325.841,507.224,330.617,501.333,330.617z" fill="#49dee1" data-original="#49dee1" style=""/>
<g xmlns="http://www.w3.org/2000/svg">
</g>
<g xmlns="http://www.w3.org/2000/svg">
</g>
<g xmlns="http://www.w3.org/2000/svg">
</g>
<g xmlns="http://www.w3.org/2000/svg">
</g>
<g xmlns="http://www.w3.org/2000/svg">
</g>
<g xmlns="http://www.w3.org/2000/svg">
</g>
<g xmlns="http://www.w3.org/2000/svg">
</g>
<g xmlns="http://www.w3.org/2000/svg">
</g>
<g xmlns="http://www.w3.org/2000/svg">
</g>
<g xmlns="http://www.w3.org/2000/svg">
</g>
<g xmlns="http://www.w3.org/2000/svg">
</g>
<g xmlns="http://www.w3.org/2000/svg">
</g>
<g xmlns="http://www.w3.org/2000/svg">
</g>
<g xmlns="http://www.w3.org/2000/svg">
</g>
<g xmlns="http://www.w3.org/2000/svg">
</g>
</g></svg>
